<svg width="80" height="80" viewBox="0 0 80 80" fill="none" xmlns="http://www.w3.org/2000/svg"><path d="M18.236 0h43.006a18.09 18.09 0 0 1 6.985 1.386 18.19 18.19 0 0 1 5.922 3.978 18.333 18.333 0 0 1 3.953 5.961 18.423 18.423 0 0 1 1.377 7.031v43.285a18.421 18.421 0 0 1-1.377 7.032 18.335 18.335 0 0 1-3.953 5.96 18.197 18.197 0 0 1-5.922 3.979 18.095 18.095 0 0 1-6.985 1.386H18.236a18.096 18.096 0 0 1-6.985-1.386 18.186 18.186 0 0 1-5.922-3.979 18.318 18.318 0 0 1-3.952-5.96A18.42 18.42 0 0 1 0 61.64V18.357a18.421 18.421 0 0 1 1.377-7.03 18.324 18.324 0 0 1 3.952-5.962 18.188 18.188 0 0 1 5.922-3.978A18.091 18.091 0 0 1 18.236 0z" fill="url(#paint0Linear36)"/><path d="M17.412 22.749a3.166 3.166 0 0 0-1.187.223l7.478 7.74 7.561 7.89.139.166.22.223.22.221.442.473 6.486 6.694c.21.176.433.337.665.483.313.177.66.285 1.016.318.386.002.766-.088 1.108-.264.257-.125.37-.305.667-.537l7.507-7.805 7.58-7.862 7.32-7.583a3.197 3.197 0 0 0-1.546-.389l-45.676.009zm-2.291.945a4.376 4.376 0 0 0-1.297 3.193v25.444a4.509 4.509 0 0 0 .884 2.724l1.05-1 7.807-7.639 6.927-6.754-.139-.167-7.587-7.862-7.59-7.88-.055-.059zm50.498.25l-7.394 7.693-7.556 7.861-.138.14 7.197 7.038 7.81 7.638.468.444c.44-.727.67-1.564.662-2.417V26.887a4.477 4.477 0 0 0-1.049-2.943zM31.375 40.58l-6.898 6.754-7.836 7.64-.995.972a3.235 3.235 0 0 0 1.767.555h45.67a3.274 3.274 0 0 0 2.07-.777l-.498-.5-7.836-7.638-7.202-7.002-6.486 6.724c-.352.233-.585.493-.927.653a4.114 4.114 0 0 1-1.765.464 4.19 4.19 0 0 1-1.752-.52 3.375 3.375 0 0 1-.742-.542l-6.57-6.783z" fill="#fff"/><defs><linearGradient id="paint0Linear36" x1="39.698" y1="79.676" x2="39.776" y2=".964" gradientUnits="userSpaceOnUse"><stop stop-color="#70EFFF"/><stop offset="1" stop-color="#5770FF"/></linearGradient></defs></svg>