<svg width="81" height="61" viewBox="0 0 81 61" fill="none" xmlns="http://www.w3.org/2000/svg"><g clip-path="url(#clip0_36:407)"><path d="M68.241 5.446A66.163 66.163 0 0 0 51.737.368a45.372 45.372 0 0 0-2.114 4.297 61.463 61.463 0 0 0-18.317 0A45.507 45.507 0 0 0 29.192.368a66.629 66.629 0 0 0-16.518 5.09C2.23 20.912-.602 35.982.814 50.838A66.527 66.527 0 0 0 21.055 61a48.895 48.895 0 0 0 4.335-6.99 43.045 43.045 0 0 1-6.827-3.26 77.208 77.208 0 0 0 1.674-1.258 47.552 47.552 0 0 0 40.471 0 23.75 23.75 0 0 0 1.674 1.258 43.213 43.213 0 0 1-6.84 3.266A48.449 48.449 0 0 0 59.88 61a66.225 66.225 0 0 0 20.255-10.156c1.66-17.228-2.838-32.16-11.893-45.398zM27.184 41.702c-3.945 0-7.204-3.58-7.204-7.985s3.146-8.017 7.192-8.017 7.28 3.612 7.21 8.017c-.069 4.404-3.177 7.985-7.198 7.985zm26.579 0c-3.952 0-7.198-3.58-7.198-7.985S49.71 25.7 53.763 25.7c4.052 0 7.261 3.612 7.192 8.017-.07 4.404-3.171 7.985-7.192 7.985z" fill="#5865F2"/></g><defs><clipPath id="clip0_36:407"><path fill="#fff" transform="translate(.474 .368)" d="M0 0h80v60.632H0z"/></clipPath></defs></svg>